# xmcd
#
# Track frame offsets:
#	183
#	11108
#	21605
#	37298
#	47935
#	58740
#	76078
#	90008
#	101655
#	117160
#	130363
#	143643
#	154810
#	169065
#
# Disc length: 2387 seconds
# Revision: 2
# Processed by: cddbd v1.5.2PL0 Copyright (c) Steve Scherf et al.
# Submitted via: dBpowerAMP V12.0
#
DISCID=ba09510e
DTITLE=Crystal Gayle - The Crystal Gayle Singles Album [dBP-LITE-FLAC@]
DYEAR=1980
DGENRE=Pop
TTITLE0=Somebody loves you
TTITLE1=Wrong road again
TTITLE2=I'll get over you
TTITLE3=High time
TTITLE4=Ready for the times to get better
TTITLE5=You never miss a real good thing (till he says goodbye)
TTITLE6=River road
TTITLE7=Don't it make my brown eyes blue
TTITLE8=When i dream
TTITLE9=Talking in your sleep
TTITLE10=Why have you left the one you left me for
TTITLE11=All i wanna do in life
TTITLE12=We should be together
TTITLE13=Too deep for tears
EXTD=
EXTT0=
EXTT1=
EXTT2=
EXTT3=
EXTT4=
EXTT5=
EXTT6=
EXTT7=
EXTT8=
EXTT9=
EXTT10=
EXTT11=
EXTT12=
EXTT13=
PLAYORDER=
